<?xml version="1.0" encoding="UTF-8"?>
<svg xmlns="http://www.w3.org/2000/svg" xmlns:svg="http://www.w3.org/2000/svg" xmlns:rdf="http://www.w3.org/1999/02/22-rdf-syntax-ns#" xmlns:dc="http://purl.org/dc/elements/1.1/" xmlns:cc="http://creativecommons.org/ns#" version="1.1" viewBox="0 0 1974.5 310.1">
  <defs>
    <style>
      .cls-1 {
        fill: #6399a8;
      }

      .cls-2 {
        fill: #fff;
      }
    </style>
  </defs>
  <!-- Generator: Adobe Illustrator 28.7.2, SVG Export Plug-In . SVG Version: 1.2.0 Build 154)  -->
  <g>
    <g id="svg2">
      <path id="path14" class="cls-2" d="M499.8,93.6c-31.8,0-48,25-48,62.7s17.6,62.4,48,62.4,47.4-31.5,47.4-62.4c0-32.2-16.3-62.7-47.4-62.7M415.3,0h37.8v90.5h.7c10.3-17.1,31.8-27.8,51-27.8,54,0,80.2,42.5,80.2,94.3s-23.2,92.5-73.9,92.5-48-5.8-59.3-29.1h-.7v24.3h-35.8V0h0"/>
      <path id="path16" class="cls-2" d="M715.9,185.1c0,24.7-25.8,33.6-42.4,33.6s-34.8-5.2-34.8-22.6,14.6-26.7,30.8-29.5c16.6-3.1,34.8-2.7,46.4-10.6v29.1ZM877.5,62.7c-22.5,0-42.1,12-53.3,31.5l-.7-.7v-26h-35.8v150.9c-21.5.2-23.5.2-25.2.2-7,0-8.9-3.8-8.9-13.4v-91.2c0-37.3-35.1-51.4-68.6-51.4s-75.2,13.4-77.8,59h37.8c1.7-19.2,16.6-28.1,37.8-28.1s35.4,3.8,35.4,24-24.2,19.9-51.4,25c-31.8,3.8-65.9,11-65.9,55.2s27.8,51.8,58.6,51.8,44.4-6.5,59.3-21.6c3,16.1,13.9,21.6,29.2,21.6s18.2-2.4,77.3-4.4v-.3h.2v-104.5c0-26.1,16.2-46.6,41.4-46.6s32.8,12,33.5,39.8v111.4h37.8v-121.7c0-39.8-23.5-60.3-60.6-60.3"/>
      <path id="path18" class="cls-2" d="M1048.1,218.7c33.8,0,48-31.9,48-62.7s-18.2-62.4-47.4-62.4-48,32.6-48,64.4,14.6,60.7,47.4,60.7M1132.6,244.7h-35.8v-24h-.7c-9.9,20.2-31.5,28.8-53,28.8-54,0-80.2-41.5-80.2-94.6s36.8-92.2,74.2-92.2,45.4,8.2,57,27.8h.7V0h37.8v244.7h0"/>
      <path id="path20" class="cls-2" d="M1282.7,126.8c-3-21.6-18.2-33.3-39.1-33.3s-47,10.6-47,64.4,12.6,60.7,45.4,60.7,37.1-15.1,40.7-40.5h37.8c-7,45.9-34.4,71.3-78.5,71.3s-83.2-39.4-83.2-91.5,28.2-95.3,84.5-95.3,73.6,20.6,77.2,64.1h-37.8"/>
      <path id="path22" class="cls-2" d="M1450.3,185.1c0,24.7-25.8,33.6-42.4,33.6s-34.8-5.2-34.8-22.6,14.6-26.7,30.8-29.5c16.6-3.1,34.8-2.7,46.4-10.6v29.1ZM1713.4,62.7c-24.9,0-41.1,11.3-53.7,29.5-7.6-20.2-27.2-29.5-48.1-29.5s-41.4,12-52.7,29.5h-1v-24.7h-35.8v150.9c-21.5.2-23.5.2-25.2.2-6.9,0-8.9-3.8-8.9-13.4v-91.2c0-37.3-35.1-51.4-68.6-51.4s-75.2,13.4-77.9,59h37.8c1.7-19.2,16.6-28.1,37.8-28.1s35.4,3.8,35.4,24-24.2,19.9-51.3,25c-31.8,3.8-65.9,11-65.9,55.2s27.8,51.8,58.6,51.8,44.4-6.5,59.3-21.6c3,16.1,13.9,21.6,29.2,21.6s18.2-2.4,76.8-4.4v-.3h.8v-105.2c0-29.5,17.9-45.9,37.4-45.9s30.1,13,30.1,37.4v113.8h37.8v-103.8c0-29.8,10.9-47.3,36.5-47.3s31.1,19.5,31.1,47.6v103.5h37.8v-122.3c0-43.2-21.2-59.6-57.3-59.6"/>
      <path id="path24" class="cls-2" d="M1889.3,93.6c-31.8,0-48,25-48,62.7s17.6,62.4,48,62.4,47.4-31.5,47.4-62.4-16.3-62.7-47.4-62.7M1804.9,67.5h35.8v24h.7c10.6-20.2,31.1-28.8,53-28.8,54,0,80.2,42.5,80.2,94.3s-23.2,92.5-73.9,92.5-45.4-8.2-57.3-27.7h-.7v88.4h-37.8V67.5h0"/>
      <path id="path26" class="cls-1" d="M283.3,244.2H0L132.3,0h283.3l-132.3,244.2"/>
    </g>
  </g>
</svg>